<svg xmlns="http://www.w3.org/2000/svg" version="1.1" xmlns:xlink="http://www.w3.org/1999/xlink" viewBox="0 0 200 200" width="200" height="200"><metadata><rdf:RDF xmlns:rdf="http://www.w3.org/1999/02/22-rdf-syntax-ns#" xmlns:dc="http://purl.org/dc/elements/1.1/"><rdf:Description><dc:creator>RealFaviconGenerator</dc:creator><dc:source>https://realfavicongenerator.net</dc:source></rdf:Description></rdf:RDF></metadata><rect width="200" height="200" fill="url('#gradient')"></rect><defs><linearGradient id="gradient" gradientTransform="rotate(45 0.5 0.5)"><stop offset="0%" stop-color="#d8dee9"></stop><stop offset="100%" stop-color="#d8dee9"></stop></linearGradient></defs><g><g fill="2d333f" transform="matrix(2.7485833581866985,0,0,2.7485833581866985,8.362384111426891,120.34185993354996)" stroke="2d333f" stroke-width="0.2"><path d="M6.04 0.20L6.04 0.20Q3.60 0.20 2.10-1.25Q0.60-2.71 0.60-5.03L0.60-5.03L0.60-5.30Q0.60-6.92 1.20-8.16Q1.80-9.40 2.95-10.08Q4.10-10.76 5.68-10.76L5.68-10.76Q7.91-10.76 9.20-9.38Q10.49-8.00 10.49-5.53L10.49-5.53L10.49-4.25L3.95-4.25Q4.12-3.36 4.72-2.85Q5.31-2.34 6.26-2.34L6.26-2.34Q7.82-2.34 8.70-3.44L8.70-3.44L10.21-1.66Q9.59-0.81 8.46-0.31Q7.33 0.20 6.04 0.20ZM5.66-8.22L5.66-8.22Q4.22-8.22 3.95-6.31L3.95-6.31L7.27-6.31L7.27-6.56Q7.29-7.35 6.87-7.79Q6.45-8.22 5.66-8.22ZM21.62-5.36L21.62-5.20Q21.62-2.60 20.55-1.20Q19.47 0.20 17.52 0.20L17.52 0.20Q15.91 0.20 14.92-1.08L14.92-1.08L14.79 0L11.84 0L11.84-15L15.13-15L15.13-9.72Q16.04-10.76 17.50-10.76L17.50-10.76Q19.47-10.76 20.55-9.35Q21.62-7.93 21.62-5.36L21.62-5.36ZM18.32-5.40L18.32-5.40Q18.32-6.92 17.92-7.57Q17.51-8.22 16.67-8.22L16.67-8.22Q15.56-8.22 15.13-7.37L15.13-7.37L15.13-3.17Q15.55-2.33 16.69-2.33L16.69-2.33Q17.85-2.33 18.16-3.47L18.16-3.47Q18.32-4.02 18.32-5.40ZM25.11-3.19L25.11-3.19Q25.89-3.19 26.41-2.73Q26.92-2.27 26.92-1.54Q26.92-0.82 26.41-0.36Q25.89 0.11 25.11 0.11L25.11 0.11Q24.32 0.11 23.80-0.36Q23.29-0.83 23.29-1.54Q23.29-2.26 23.80-2.72Q24.32-3.19 25.11-3.19ZM33.58-2.34L33.58-2.34Q34.28-2.34 34.66-2.72Q35.04-3.10 35.03-3.77L35.03-3.77L38.12-3.77Q38.12-2.03 36.87-0.92Q35.63 0.20 33.66 0.20L33.66 0.20Q31.36 0.20 30.03-1.25Q28.70-2.70 28.70-5.25L28.70-5.25L28.70-5.39Q28.70-6.99 29.29-8.22Q29.88-9.44 31.00-10.10Q32.11-10.76 33.63-10.76L33.63-10.76Q35.69-10.76 36.90-9.62Q38.12-8.48 38.12-6.52L38.12-6.52L35.03-6.52Q35.03-7.34 34.63-7.78Q34.23-8.22 33.55-8.22L33.55-8.22Q32.28-8.22 32.06-6.59L32.06-6.59Q31.99-6.07 31.99-5.17L31.99-5.17Q31.99-3.57 32.37-2.96Q32.75-2.34 33.58-2.34ZM39.10-4.82L39.09-5.38Q39.09-6.96 39.71-8.20Q40.32-9.43 41.47-10.10Q42.63-10.76 44.18-10.76L44.18-10.76Q46.55-10.76 47.92-9.29Q49.29-7.82 49.29-5.29L49.29-5.29L49.29-5.18Q49.29-2.71 47.92-1.25Q46.54 0.20 44.20 0.20L44.20 0.20Q41.94 0.20 40.58-1.16Q39.21-2.51 39.10-4.82L39.10-4.82ZM42.39-5.77L42.38-5.18Q42.38-3.71 42.84-3.03Q43.30-2.34 44.20-2.34L44.20-2.34Q45.96-2.34 46.00-5.05L46.00-5.05L46.00-5.38Q46.00-8.22 44.18-8.22L44.18-8.22Q42.53-8.22 42.39-5.77L42.39-5.77ZM50.76-10.57L53.85-10.57L53.96-9.33Q55.08-10.76 56.97-10.76L56.97-10.76Q58.97-10.76 59.68-9.17L59.68-9.17Q60.75-10.76 62.78-10.76L62.78-10.76Q66.00-10.76 66.08-6.88L66.08-6.88L66.08 0L62.78 0L62.78-6.67Q62.78-7.48 62.51-7.85Q62.24-8.22 61.51-8.22L61.51-8.22Q60.54-8.22 60.06-7.35L60.06-7.35L60.07-7.22L60.07 0L56.77 0L56.77-6.65Q56.77-7.48 56.50-7.85Q56.24-8.22 55.50-8.22L55.50-8.22Q54.55-8.22 54.05-7.35L54.05-7.35L54.05 0L50.76 0L50.76-10.57Z"></path></g></g></svg>